<?xml version="1.0" encoding="UTF-8" standalone="no"?>
<!-- Created with Inkscape (http://www.inkscape.org/) -->

<svg
   xmlns:dc="http://purl.org/dc/elements/1.1/"
   xmlns:cc="http://creativecommons.org/ns#"
   xmlns:rdf="http://www.w3.org/1999/02/22-rdf-syntax-ns#"
   xmlns:svg="http://www.w3.org/2000/svg"
   xmlns="http://www.w3.org/2000/svg"
   xmlns:sodipodi="http://sodipodi.sourceforge.net/DTD/sodipodi-0.dtd"
   xmlns:inkscape="http://www.inkscape.org/namespaces/inkscape"
   sodipodi:docname="smart_logo.svg"
   inkscape:version="0.92.4 (5da689c313, 2019-01-14)"
   id="svg8"
   version="1.1"
   viewBox="0 0 73.289581 14.816668"
   height="56"
   width="277">
  <defs
     id="defs2" />
  <sodipodi:namedview
     id="base"
     pagecolor="#ffffff"
     bordercolor="#666666"
     borderopacity="1.0"
     inkscape:pageopacity="0.0"
     inkscape:pageshadow="2"
     inkscape:zoom="1.4142136"
     inkscape:cx="185.62797"
     inkscape:cy="-19.139276"
     inkscape:document-units="px"
     inkscape:current-layer="layer1"
     showgrid="true"
     units="px"
     showborder="true"
     inkscape:window-width="1920"
     inkscape:window-height="1017"
     inkscape:window-x="-8"
     inkscape:window-y="-8"
     inkscape:window-maximized="1"
     inkscape:snap-smooth-nodes="true"
     inkscape:snap-intersection-paths="true"
     inkscape:snap-global="true"
     inkscape:snap-bbox="true"
     inkscape:snap-nodes="true"
     showguides="true"
     inkscape:guide-bbox="true" />
  <metadata
     id="metadata5">
    <rdf:RDF>
      <cc:Work
         rdf:about="">
        <dc:format>image/svg+xml</dc:format>
        <dc:type
           rdf:resource="http://purl.org/dc/dcmitype/StillImage" />
        <dc:title></dc:title>
      </cc:Work>
    </rdf:RDF>
  </metadata>
  <g
     inkscape:label="Camada 1"
     inkscape:groupmode="layer"
     id="layer1"
     transform="translate(0,-282.18331)">
    <text
       xml:space="preserve"
       style="font-style:normal;font-weight:normal;font-size:10.58333302px;line-height:1.25;font-family:sans-serif;letter-spacing:0px;word-spacing:0px;fill:#000000;fill-opacity:1;stroke:none;stroke-width:0.26458332"
       x="-325.05951"
       y="125.3988"
       id="text829"><tspan
         sodipodi:role="line"
         id="tspan827"
         x="-325.05951"
         y="135.05431"
         style="stroke-width:0.26458332" /></text>
    <g
       id="g1485"
       transform="translate(-0.14383426,1.1367623)">
      <path
         inkscape:connector-curvature="0"
         id="path1428"
         d="m 53.216391,281.88256 -5.711277,10.25518 1.608685,3.4184 h 3.512447 l 1.903243,-3.4184 h -3.511928 l 1.903759,-3.41839 h 3.511931 l 1.903759,-3.4184 h -3.512447 l 1.903759,-3.41839 z m 6.064748,0 3.216857,6.83679 -3.807003,6.83679 h 3.511931 3.512447 3.511929 l 3.807521,-6.83679 -3.216857,-6.83679 h -3.512447 -3.51245 z m -52.32084,3.41839 -2.8556398,5.12734 0.8521443,1.70945 H 3.1527792 l -1.9037598,3.4184 h 8.8284016 3.512448 l 3.807003,-6.83679 h 3.512447 l -3.80752,6.83679 h 3.512447 l 3.807003,-6.83679 h 3.512447 l -3.807519,6.83679 h 3.511929 l 3.807521,-6.83679 -1.608172,-3.4184 h -6.073013 l -0.95188,1.21853 v -1.21853 h -7.024378 z m 26.5498,0 -3.798734,6.82181 1.60042,3.43338 h 3.511931 l 0.951878,-1.21905 v 1.21905 h 2.560569 l 3.807002,-6.83679 -1.608687,-3.4184 z m 10.616926,0 -5.710765,10.25519 h 3.512447 l 3.807005,-6.83679 h 3.512447 l 1.903241,-3.4184 z m -32.046108,3.4184 h 1.803507 l -0.951363,1.70894 z m 23.03787,0 h 3.511931 l -1.903759,3.41839 h -3.511931 z"
         style="opacity:1;fill:#cccccc;fill-opacity:1;stroke:#cccccc;stroke-width:0.6142751;stroke-linecap:square;stroke-linejoin:miter;stroke-miterlimit:4;stroke-dasharray:none;stroke-opacity:1;paint-order:normal" />
      <g
         transform="matrix(0.92681421,0,0,0.92681421,0.18784665,20.487175)"
         id="g1379">
        <g
           id="g1368">
          <path
             inkscape:connector-curvature="0"
             id="path971"
             d="M 40.676265,296.21867 H 44.4658 l 4.107904,-7.37645 h 3.789526 l 2.053953,-3.68824 h -7.579054 z"
             style="opacity:1;fill:#ffffff;fill-opacity:1;stroke:#005522;stroke-width:0.66278124;stroke-linecap:square;stroke-linejoin:miter;stroke-miterlimit:4;stroke-dasharray:none;stroke-opacity:1;paint-order:normal" />
          <path
             sodipodi:nodetypes="ccccccccccccccc"
             inkscape:connector-curvature="0"
             id="path969"
             d="m 35.382852,285.15388 -4.098915,7.36063 1.726677,3.70407 h 3.789467 l 1.027021,-1.31494 v 1.31494 h 2.762443 l 4.107681,-7.37645 -1.735429,-3.68825 z m 1.735436,3.68825 h 3.789464 l -2.054028,3.68822 h -3.789465 z"
             style="opacity:1;fill:#ffffff;fill-opacity:1;stroke:#005522;stroke-width:0.66278124;stroke-linecap:square;stroke-linejoin:miter;stroke-miterlimit:4;stroke-dasharray:none;stroke-opacity:1;paint-order:normal" />
          <path
             sodipodi:nodetypes="ccccccccccccccccc"
             d="m 16.261515,285.15388 -6.161716,11.0647 h 3.789465 l 4.107672,-7.37645 h 3.789866 l -4.10808,7.37645 h 3.789487 l 4.108059,-7.37645 h 3.78948 l -4.108072,7.37645 h 3.789457 l 4.10808,-7.37645 -1.735428,-3.68825 h -6.552317 l -1.027021,1.31495 v -1.31495 z"
             style="opacity:1;fill:#ffffff;fill-opacity:1;stroke:#005522;stroke-width:0.66278124;stroke-linecap:square;stroke-linejoin:miter;stroke-miterlimit:4;stroke-dasharray:none;stroke-opacity:1;paint-order:normal"
             id="path967"
             inkscape:connector-curvature="0" />
          <path
             sodipodi:nodetypes="ccccccccccccccc"
             d="m 8.471776,288.84222 h 3.789503 m -7.6866826,3.68821 h 3.7895037 m -1.627761,-7.37655 -3.0810587,5.53236 0.9192083,1.84411 H 2.6282583 l -2.05402893,3.68823 H 10.099799 l 3.080666,-5.53234 -0.919232,-1.84411 h 1.946237 l 2.054045,-3.68825 z"
             style="fill:#ffffff;fill-opacity:1;stroke:#005522;stroke-width:0.66278124;stroke-linecap:square;stroke-linejoin:miter;stroke-miterlimit:4;stroke-dasharray:none;stroke-opacity:1;paint-order:normal"
             id="path965"
             inkscape:connector-curvature="0" />
          <path
             inkscape:connector-curvature="0"
             id="path975"
             d="m 62.551858,296.21867 4.107904,-7.37645 -3.471135,-7.37648 h 3.789535 l 3.471135,7.37648 -4.107904,7.37645 z"
             style="opacity:1;fill:#ffffff;fill-opacity:1;stroke:#005522;stroke-width:0.66278124;stroke-linecap:square;stroke-linejoin:miter;stroke-miterlimit:4;stroke-dasharray:none;stroke-opacity:1;paint-order:normal" />
          <path
             inkscape:connector-curvature="0"
             id="path977"
             d="m 66.341393,296.21867 4.107904,-7.37645 -3.471135,-7.37648 h 3.789535 l 3.471134,7.37648 -4.107903,7.37645 z"
             style="opacity:1;fill:#ffffff;fill-opacity:1;stroke:#005522;stroke-width:0.66278124;stroke-linecap:square;stroke-linejoin:miter;stroke-miterlimit:4;stroke-dasharray:none;stroke-opacity:1;paint-order:normal" />
          <path
             style="opacity:1;fill:#ffffff;fill-opacity:1;stroke:#005522;stroke-width:0.66278124;stroke-linecap:square;stroke-linejoin:miter;stroke-miterlimit:4;stroke-dasharray:none;stroke-opacity:1;paint-order:normal"
             d="m 70.130928,296.21867 4.107903,-7.37645 -3.471134,-7.37648 h 3.789534 l 3.471135,7.37648 -4.107904,7.37645 z"
             id="path979"
             inkscape:connector-curvature="0" />
          <path
             inkscape:connector-curvature="0"
             id="path973"
             d="m 50.482886,292.53044 1.735569,3.68823 h 3.789534 l 2.053952,-3.68823 -3.789534,-10e-6 2.053951,-3.68821 h 3.789535 l 2.053951,-3.68824 h -3.789533 l 2.053951,-3.68824 h -3.78952 z"
             style="opacity:1;fill:#ffffff;fill-opacity:1;stroke:#005522;stroke-width:0.66278124;stroke-linecap:square;stroke-linejoin:miter;stroke-miterlimit:4;stroke-dasharray:none;stroke-opacity:1;paint-order:normal" />
        </g>
      </g>
    </g>
  </g>
</svg>
